PathFileType	4	(X/Y/Z)	C:\Data Capture\Research\archery\Archery pilot8.trc
DataRate	CameraRate	NumFrames	NumMarkers	Units	OrigDataRate	OrigDataStartFrame	OrigNumFrames
100.00	100.00	       38	3	mm	100.00	134	       800
Frame#	Time	Marker 1			Marker 2			Marker 3			
		X1	Y1	Z1	X2	Y2	Z2	X3	Y3	Z3	

134	1.330	43.48116	452.71112	1339.67737	129.51640	457.75833	1288.94702	60.43427	473.03940	1200.03650	
135	1.340	43.22765	455.44034	1339.47778	129.56282	457.99954	1289.05066	60.96537	471.17871	1199.56824	
136	1.350	43.01593	458.05563	1339.09607	129.61099	458.24399	1288.99805	61.46214	469.26953	1199.03101	
137	1.360	42.85155	460.57565	1338.57556	129.66214	458.64398	1288.80176	61.91999	467.41830	1198.42468	
138	1.370	42.72469	462.92130	1337.97168	129.71419	459.28491	1288.49255	62.32563	465.80502	1197.78015	
139	1.380	42.62129	464.95410	1337.34766	129.76007	460.17844	1288.10938	62.65611	464.63409	1197.13965	
140	1.390	42.53484	466.53586	1336.76099	129.78951	461.26904	1287.68677	62.88155	464.07462	1196.54382	
141	1.400	42.47112	467.58539	1336.24597	129.79655	462.45413	1287.24207	62.97105	464.20401	1196.01819	
142	1.410	42.44440	468.10846	1335.80396	129.78426	463.61456	1286.76550	62.90271	464.97369	1195.56152	
143	1.420	42.46971	468.19531	1335.40527	129.76164	464.64520	1286.22620	62.67479	466.21332	1195.14209	
144	1.430	42.55571	467.99484	1335.00391	129.73750	465.47668	1285.58960	62.31498	467.67117	1194.71094	
145	1.440	42.70012	467.67633	1334.55640	129.71701	466.08362	1284.83582	61.87740	469.08258	1194.22083	
146	1.450	42.88853	467.38684	1334.03577	129.70103	466.47943	1283.96863	61.42280	470.24393	1193.64465	
147	1.460	43.09656	467.21698	1333.43884	129.68663	466.70428	1283.01733	60.99915	471.05560	1192.98401	
148	1.470	43.29584	467.18640	1332.78552	129.66933	466.81110	1282.03406	60.63263	471.52277	1192.26758	
149	1.480	43.46139	467.25299	1332.11230	129.64484	466.85181	1281.08167	60.32679	471.73120	1191.54187	
150	1.490	43.57735	467.34030	1331.46155	129.61020	466.86743	1280.21924	60.07252	471.80859	1190.85815	
151	1.500	43.64090	467.37344	1330.87085	129.56673	466.88440	1279.49133	59.86129	471.87860	1190.25903	
152	1.510	43.66217	467.30811	1330.36877	129.52121	466.91376	1278.91919	59.68858	472.02417	1189.77051	
153	1.520	43.65739	467.14279	1329.96985	129.48192	466.95432	1278.49756	59.55116	472.27048	1189.39795	
154	1.530	43.64118	466.91513	1329.66992	129.45328	466.99939	1278.20190	59.44651	472.58798	1189.12817	
155	1.540	43.62462	466.68591	1329.44849	129.43503	467.04376	1277.99951	59.37232	472.91257	1188.93518	
156	1.550	43.61560	466.51758	1329.27905	129.42465	467.08783	1277.85828	59.32382	473.17471	1188.78894	
157	1.560	43.61843	466.45282	1329.13953	129.41965	467.13776	1277.75122	59.29401	473.32788	1188.66492	
158	1.570	43.63502	466.50052	1329.01855	129.41843	467.20135	1277.66077	59.27754	473.36441	1188.55115	
159	1.580	43.66523	466.63342	1328.91748	129.42039	467.28418	1277.58081	59.27280	473.31525	1188.45093	
160	1.590	43.70675	466.79871	1328.84680	129.42572	467.38803	1277.51501	59.27901	473.23721	1188.37866	
161	1.600	43.75794	466.93619	1328.81958	129.43571	467.51205	1277.47192	59.29136	473.19467	1188.35193	
162	1.610	43.82028	466.99533	1328.84607	129.45279	467.65363	1277.45752	59.30245	473.24042	1188.38293	
163	1.620	43.89609	466.94626	1328.92944	129.47948	467.80716	1277.47229	59.30832	473.40051	1188.47400	
164	1.630	43.98473	466.78403	1329.06458	129.51758	467.96365	1277.51184	59.30955	473.67047	1188.61658	
165	1.640	44.08309	466.52789	1329.23694	129.56856	468.11322	1277.56897	59.30648	474.02203	1188.79419	
166	1.650	44.18961	466.21545	1329.42529	129.63441	468.24841	1277.63513	59.29836	474.41330	1188.98730	
167	1.660	44.30609	465.89310	1329.60828	129.71738	468.36584	1277.70251	59.28784	474.79819	1189.17725	
168	1.670	44.43430	465.60291	1329.77039	129.81851	468.46634	1277.76660	59.28219	475.13568	1189.34839	
169	1.680	44.57267	465.37103	1329.90491	129.93596	468.55188	1277.82581	59.28900	475.39981	1189.49109	
170	1.690	44.71712	465.20447	1330.01245	130.06432	468.62262	1277.88037	59.31262	475.58466	1189.60315	
171	1.700	44.86337	465.09732	1330.09668	130.19606	468.67709	1277.93140	59.35382	475.70035	1189.68823	
